<svg width="91" height="91" viewBox="0 0 91 91" fill="none" xmlns="http://www.w3.org/2000/svg">
<rect x="4.94874" y="46.0593" width="57" height="57" rx="6.5" transform="rotate(-46.1568 4.94874 46.0593)" stroke="#FFAD45" stroke-width="7"/>
<path d="M27.0607 49.8079C27.1213 50.0367 27.2267 50.2513 27.3709 50.4391C27.5151 50.6268 27.6951 50.7841 27.9006 50.9018L31.3411 52.8913V56.8542C31.3411 57.3322 31.531 57.7906 31.869 58.1286C32.207 58.4665 32.6654 58.6564 33.1434 58.6564H37.1066L39.0964 62.0985C39.336 62.5117 39.7297 62.813 40.1911 62.9367C40.6525 63.0603 41.1441 62.9961 41.5583 62.7581L44.9988 60.7703L48.4412 62.7599C48.8554 62.9979 49.347 63.0621 49.8084 62.9385C50.2698 62.8149 50.6634 62.5135 50.9031 62.1003L52.891 58.66H56.8543C57.3323 58.66 57.7907 58.4701 58.1287 58.1322C58.4667 57.7942 58.6565 57.3358 58.6565 56.8579V52.8949L62.0971 50.9054C62.3022 50.7872 62.4821 50.6298 62.6263 50.442C62.7705 50.2543 62.8762 50.04 62.9375 49.8113C62.9988 49.5826 63.0144 49.3441 62.9833 49.1095C62.9523 48.8748 62.8753 48.6485 62.7567 48.4436L60.7688 45.0015L62.7585 41.5612C62.9975 41.1473 63.0623 40.6554 62.9386 40.1938C62.8149 39.7321 62.5128 39.3385 62.0989 39.0995L58.6583 37.11V33.147C58.6583 32.6691 58.4685 32.2107 58.1305 31.8727C57.7925 31.5348 57.3341 31.3449 56.8561 31.3449H52.8928L50.9049 27.9046C50.6654 27.4912 50.2722 27.1893 49.8109 27.0648C49.5823 27.0029 49.3437 26.987 49.1089 27.0179C48.8741 27.0489 48.6478 27.1261 48.443 27.245L44.9988 29.2328L41.5583 27.2432C41.3535 27.1243 41.1273 27.047 40.8927 27.0158C40.658 26.9845 40.4195 26.9998 40.1907 27.061C39.962 27.1221 39.7476 27.2277 39.5598 27.3719C39.372 27.516 39.2145 27.6958 39.0964 27.901L37.1066 31.3431H33.1434C32.6654 31.3431 32.207 31.533 31.869 31.8709C31.531 32.2089 31.3411 32.6673 31.3411 33.1452V37.1081L27.9006 39.0995C27.4873 39.3391 27.186 39.7329 27.0626 40.1944C26.9393 40.6559 27.0041 41.1474 27.2427 41.5612L29.2306 45.0015L27.2409 48.4418C27.0028 48.8555 26.938 49.3466 27.0607 49.8079Z" fill="#FFAD45"/>
</svg>
