<svg width="91" height="91" viewBox="0 0 91 91" fill="none" xmlns="http://www.w3.org/2000/svg">
<path fill-rule="evenodd" clip-rule="evenodd" d="M27.5488 43.6875C27.8799 39.2858 29.8621 35.1718 33.0984 32.1699C36.3346 29.168 40.5857 27.4999 44.9998 27.5C43.5473 27.5 42.2523 28.137 41.1848 29.1118C40.1261 30.0813 39.2318 31.4358 38.5073 33.0353C37.7793 34.6453 37.2123 36.5283 36.8291 38.5705C36.5167 40.26 36.3307 41.9704 36.2726 43.6875H27.5488ZM27.5488 46.3125H36.2726C36.3356 48.066 36.5228 49.7915 36.8291 51.4295C37.2141 53.4717 37.7793 55.3547 38.5073 56.9647C39.2318 58.5642 40.1261 59.9188 41.1848 60.8883C42.2523 61.863 43.5473 62.5 44.9998 62.5C35.7773 62.5 28.2191 55.3652 27.5488 46.3125Z" fill="#FFAD45"/>
<path d="M45.0003 29.9412C44.5191 29.9412 43.8978 30.146 43.1751 30.8075C42.4471 31.4742 41.7173 32.519 41.0733 33.9417C40.4328 35.3557 39.9131 37.062 39.5561 38.9695C39.2761 40.471 39.1011 42.0635 39.0381 43.6875H50.9626C50.9056 42.1043 50.7324 40.5274 50.4446 38.9695C50.0876 37.062 49.5696 35.3557 48.9273 33.9417C48.2833 32.519 47.5553 31.4742 46.8273 30.8092C46.1028 30.146 45.4816 29.9412 45.0003 29.9412ZM39.5561 51.0305C39.9131 52.938 40.4328 54.6442 41.0733 56.0582C41.7173 57.481 42.4471 58.5257 43.1733 59.1907C43.8978 59.854 44.5208 60.0587 45.0003 60.0587C45.4816 60.0587 46.1028 59.854 46.8256 59.1925C47.5553 58.5257 48.2833 57.481 48.9273 56.0582C49.5678 54.6442 50.0876 52.938 50.4446 51.0305C50.7263 49.529 50.9013 47.9365 50.9626 46.3125H39.0381C39.0993 47.9365 39.2743 49.529 39.5561 51.0305Z" fill="#FFAD45"/>
<path d="M45 27.5C46.4542 27.5 47.7475 28.137 48.815 29.1118C49.8738 30.0813 50.7698 31.4358 51.4925 33.0353C52.2223 34.6453 52.7875 36.5283 53.1708 38.5705C53.477 40.2085 53.6642 41.934 53.7272 43.6875H62.451C62.1203 39.2856 60.1382 35.1714 56.9019 32.1694C53.6656 29.1674 49.4143 27.4995 45 27.5ZM53.1708 51.4295C52.7875 53.4717 52.2223 55.3547 51.4925 56.9647C50.7698 58.5642 49.8738 59.9188 48.815 60.8883C47.7475 61.863 46.4542 62.5 45 62.5C54.2225 62.5 61.7808 55.3652 62.451 46.3125H53.7272C53.6692 48.0296 53.4832 49.74 53.1708 51.4295Z" fill="#FFAD45"/>
<rect x="4.94874" y="46.0593" width="57" height="57" rx="6.5" transform="rotate(-46.1568 4.94874 46.0593)" stroke="#FFAD45" stroke-width="7"/>
</svg>
