<svg width="91" height="91" viewBox="0 0 91 91" fill="none" xmlns="http://www.w3.org/2000/svg">
<path d="M51.8103 30.75H46.71C46.235 30.75 45.7778 30.9727 45.4275 31.3734L39.5909 38.0531C39.585 38.0605 39.5791 38.0754 39.5731 38.0828C38.5875 39.2406 38.6053 41.0887 39.4484 42.2391C40.2025 43.2707 41.7878 43.5453 42.7794 42.4395C42.7853 42.432 42.7972 42.432 42.8031 42.4246L47.5472 36.9918C47.9331 36.5539 48.5387 36.5836 48.8891 37.066C49.2453 37.5484 49.2156 38.298 48.8297 38.7434L47.28 40.5172L55.925 49.2898C56.0972 49.468 56.2516 49.6609 56.3941 49.8613V35.5L53.1522 31.4477C52.8019 31.0023 52.315 30.75 51.8103 30.75ZM58.3 35.5148V52.1324C58.3 53.4461 59.1491 54.5074 60.2 54.5074H64V35.5148H58.3ZM61.15 52.1324C60.6275 52.1324 60.2 51.598 60.2 50.9449C60.2 50.2918 60.6275 49.7574 61.15 49.7574C61.6725 49.7574 62.1 50.2918 62.1 50.9449C62.1 51.598 61.6725 52.1324 61.15 52.1324ZM26 54.5H29.8C30.8509 54.5 31.7 53.4387 31.7 52.125V35.5148H26V54.5ZM28.85 49.7574C29.3725 49.7574 29.8 50.2918 29.8 50.9449C29.8 51.598 29.3725 52.1324 28.85 52.1324C28.3275 52.1324 27.9 51.598 27.9 50.9449C27.9 50.2844 28.3275 49.7574 28.85 49.7574ZM54.7316 51.1379L45.8669 42.1426L44.0856 44.1836C42.3222 46.1949 39.6206 46.002 38.0472 43.857C36.45 41.675 36.5747 38.298 38.3084 36.309L43.1653 30.75H38.1897C37.685 30.75 37.2041 31.0023 36.8478 31.4477L33.6 35.5V52.1176H34.6866L40.06 58.1961C41.6869 59.8512 44.0797 59.5395 45.4037 57.5059L45.4156 57.491L46.4784 58.6414C47.4225 59.6062 48.8178 59.4207 49.5838 58.2406L51.4481 55.3758L51.7687 55.7023C52.5822 56.5262 53.7816 56.3777 54.4406 55.3535L55.0047 54.4852C55.6697 53.4609 55.545 51.9691 54.7316 51.1379Z" fill="#FFAD45"/>
<rect x="4.94874" y="46.0593" width="57" height="57" rx="6.5" transform="rotate(-46.1568 4.94874 46.0593)" stroke="#FFAD45" stroke-width="7"/>
</svg>
